<svg xmlns="http://www.w3.org/2000/svg" viewBox="0 0 64 64">
  <!-- Background -->
  <rect width="64" height="64" rx="12" fill="#0F172A"/>
  
  <!-- ECG Line (Cardiac rhythm) -->
  <polyline points="8,32 14,32 16,26 18,38 20,32 26,32 28,24 30,40 32,32 34,32 36,28 38,36 40,32 46,32 52,32 56,32" 
            stroke="#10B981" stroke-width="2" fill="none" stroke-linecap="round" stroke-linejoin="round"/>
  
  <!-- Heart accent -->
  <path d="M32 45 C32 45, 24 38, 24 32 C24 28, 27 25, 30 25 C31.5 25, 32.5 26, 32 27.5 C31.5 26, 30.5 25, 29 25 C26 25, 23 28, 23 32 C23 38, 32 45, 32 45 Z" 
        fill="#10B981" opacity="0.6"/>
</svg>
